<svg xmlns="http://www.w3.org/2000/svg" xmlns:xlink="http://www.w3.org/1999/xlink" viewBox="0,0,256,256" width="32px" height="32px"><g fill="#f8f8f8" fill-rule="nonzero" stroke="none" stroke-width="1" stroke-linecap="butt" stroke-linejoin="miter" stroke-miterlimit="10" stroke-dasharray="" stroke-dashoffset="0" font-family="none" font-weight="none" font-size="none" text-anchor="none" style="mix-blend-mode: normal"><g transform="scale(4,4)"><path d="M14.35352,6c-2.93173,0 -5.35352,2.34939 -5.35352,5.25v42.5c0,2.90062 2.42178,5.25 5.35352,5.25h28.29297c2.93173,0 5.35352,-2.34938 5.35352,-5.25v-42.5c0,-2.90061 -2.42178,-5.25 -5.35352,-5.25zM14.35352,8h28.29297c1.87627,0 3.35352,1.45661 3.35352,3.25v42.5c0,1.79339 -1.47725,3.25 -3.35352,3.25h-28.29297c-1.87627,0 -3.35352,-1.45661 -3.35352,-3.25v-42.5c0,-1.79339 1.47725,-3.25 3.35352,-3.25zM16.23047,10c-1.71631,0 -3.23047,1.29289 -3.23047,3v6c0,1.70772 1.51416,3 3.23047,3h24.53906c1.7157,0 3.23047,-1.29228 3.23047,-3v-6c0,-1.70772 -1.51416,-3 -3.23047,-3zM16.23047,12h24.53906c0.74769,0 1.23047,0.49771 1.23047,1v6c0,0.50229 -0.48417,1 -1.23047,1h-24.53906c-0.74769,0 -1.23047,-0.49771 -1.23047,-1v-6c0,-0.50289 0.48278,-1 1.23047,-1zM52,12c-0.552,0 -1,0.447 -1,1c0,0.553 0.448,1 1,1h2c0.552,0 1,-0.447 1,-1c0,-0.553 -0.448,-1 -1,-1zM52,17c-0.552,0 -1,0.447 -1,1c0,0.553 0.448,1 1,1h2c0.552,0 1,-0.447 1,-1c0,-0.553 -0.448,-1 -1,-1zM52,22c-0.552,0 -1,0.447 -1,1c0,0.553 0.448,1 1,1h2c0.552,0 1,-0.447 1,-1c0,-0.553 -0.448,-1 -1,-1zM17.5,24c-1.41667,0 -2.60644,0.56726 -3.37305,1.42969c-0.76661,0.86243 -1.12695,1.97309 -1.12695,3.07031c0,1.09722 0.36035,2.20788 1.12695,3.07031c0.76661,0.86243 1.95638,1.42969 3.37305,1.42969c1.41667,0 2.60644,-0.56726 3.37305,-1.42969c0.76661,-0.86243 1.12695,-1.97309 1.12695,-3.07031c0,-1.09722 -0.36035,-2.20788 -1.12695,-3.07031c-0.76661,-0.86243 -1.95638,-1.42969 -3.37305,-1.42969zM28.5,24c-1.41667,0 -2.60644,0.56726 -3.37305,1.42969c-0.76661,0.86243 -1.12695,1.97309 -1.12695,3.07031c0,1.09722 0.36035,2.20788 1.12695,3.07031c0.76661,0.86243 1.95638,1.42969 3.37305,1.42969c1.41667,0 2.60644,-0.56726 3.37305,-1.42969c0.76661,-0.86243 1.12695,-1.97309 1.12695,-3.07031c0,-1.09722 -0.36035,-2.20788 -1.12695,-3.07031c-0.76661,-0.86243 -1.95638,-1.42969 -3.37305,-1.42969zM39.5,24c-1.41667,0 -2.60644,0.56726 -3.37305,1.42969c-0.76661,0.86243 -1.12695,1.97309 -1.12695,3.07031c0,1.09722 0.36035,2.20788 1.12695,3.07031c0.76661,0.86243 1.95638,1.42969 3.37305,1.42969c1.41667,0 2.60644,-0.56726 3.37305,-1.42969c0.76661,-0.86243 1.12695,-1.97309 1.12695,-3.07031c0,-1.09722 -0.36035,-2.20788 -1.12695,-3.07031c-0.76661,-0.86243 -1.95638,-1.42969 -3.37305,-1.42969zM17.5,26c0.91667,0 1.47689,0.30774 1.87695,0.75781c0.40006,0.45007 0.62305,1.08941 0.62305,1.74219c0,0.65278 -0.22299,1.29212 -0.62305,1.74219c-0.40006,0.45007 -0.96029,0.75781 -1.87695,0.75781c-0.91667,0 -1.47689,-0.30774 -1.87695,-0.75781c-0.40006,-0.45007 -0.62305,-1.08941 -0.62305,-1.74219c0,-0.65278 0.22299,-1.29212 0.62305,-1.74219c0.40006,-0.45007 0.96029,-0.75781 1.87695,-0.75781zM28.5,26c0.91667,0 1.47689,0.30774 1.87695,0.75781c0.40006,0.45007 0.62305,1.08941 0.62305,1.74219c0,0.65278 -0.22299,1.29212 -0.62305,1.74219c-0.40006,0.45007 -0.96029,0.75781 -1.87695,0.75781c-0.91667,0 -1.47689,-0.30774 -1.87695,-0.75781c-0.40006,-0.45007 -0.62305,-1.08941 -0.62305,-1.74219c0,-0.65278 0.22299,-1.29212 0.62305,-1.74219c0.40006,-0.45007 0.96029,-0.75781 1.87695,-0.75781zM39.5,26c0.91667,0 1.47689,0.30774 1.87695,0.75781c0.40006,0.45007 0.62305,1.08941 0.62305,1.74219c0,0.65278 -0.22299,1.29212 -0.62305,1.74219c-0.40006,0.45007 -0.96029,0.75781 -1.87695,0.75781c-0.91667,0 -1.47689,-0.30774 -1.87695,-0.75781c-0.40006,-0.45007 -0.62305,-1.08941 -0.62305,-1.74219c0,-0.65278 0.22299,-1.29212 0.62305,-1.74219c0.40006,-0.45007 0.96029,-0.75781 1.87695,-0.75781zM52,27c-0.552,0 -1,0.447 -1,1c0,0.553 0.448,1 1,1h2c0.552,0 1,-0.447 1,-1c0,-0.553 -0.448,-1 -1,-1zM52,32c-0.552,0 -1,0.447 -1,1c0,0.553 0.448,1 1,1h2c0.552,0 1,-0.447 1,-1c0,-0.553 -0.448,-1 -1,-1zM17.5,35c-1.41667,0 -2.60644,0.56726 -3.37305,1.42969c-0.76661,0.86243 -1.12695,1.97309 -1.12695,3.07031c0,1.09722 0.36035,2.20788 1.12695,3.07031c0.76661,0.86243 1.95638,1.42969 3.37305,1.42969c1.41667,0 2.60644,-0.56726 3.37305,-1.42969c0.76661,-0.86243 1.12695,-1.97309 1.12695,-3.07031c0,-1.09722 -0.36035,-2.20788 -1.12695,-3.07031c-0.76661,-0.86243 -1.95638,-1.42969 -3.37305,-1.42969zM28.5,35c-1.41667,0 -2.60644,0.56726 -3.37305,1.42969c-0.76661,0.86243 -1.12695,1.97309 -1.12695,3.07031c0,1.09722 0.36035,2.20788 1.12695,3.07031c0.76661,0.86243 1.95638,1.42969 3.37305,1.42969c1.41667,0 2.60644,-0.56726 3.37305,-1.42969c0.76661,-0.86243 1.12695,-1.97309 1.12695,-3.07031c0,-1.09722 -0.36035,-2.20788 -1.12695,-3.07031c-0.76661,-0.86243 -1.95638,-1.42969 -3.37305,-1.42969zM39.5,35c-1.41667,0 -2.60644,0.56726 -3.37305,1.42969c-0.76661,0.86243 -1.12695,1.97309 -1.12695,3.07031c0,1.09722 0.36035,2.20788 1.12695,3.07031c0.76661,0.86243 1.95638,1.42969 3.37305,1.42969c1.41667,0 2.60644,-0.56726 3.37305,-1.42969c0.76661,-0.86243 1.12695,-1.97309 1.12695,-3.07031c0,-1.09722 -0.36035,-2.20788 -1.12695,-3.07031c-0.76661,-0.86243 -1.95638,-1.42969 -3.37305,-1.42969zM17.5,37c0.91667,0 1.47689,0.30774 1.87695,0.75781c0.40006,0.45007 0.62305,1.08941 0.62305,1.74219c0,0.65278 -0.22299,1.29212 -0.62305,1.74219c-0.40006,0.45007 -0.96029,0.75781 -1.87695,0.75781c-0.91667,0 -1.47689,-0.30774 -1.87695,-0.75781c-0.40006,-0.45007 -0.62305,-1.08941 -0.62305,-1.74219c0,-0.65278 0.22299,-1.29212 0.62305,-1.74219c0.40006,-0.45007 0.96029,-0.75781 1.87695,-0.75781zM28.5,37c0.91667,0 1.47689,0.30774 1.87695,0.75781c0.40006,0.45007 0.62305,1.08941 0.62305,1.74219c0,0.65278 -0.22299,1.29212 -0.62305,1.74219c-0.40006,0.45007 -0.96029,0.75781 -1.87695,0.75781c-0.91667,0 -1.47689,-0.30774 -1.87695,-0.75781c-0.40006,-0.45007 -0.62305,-1.08941 -0.62305,-1.74219c0,-0.65278 0.22299,-1.29212 0.62305,-1.74219c0.40006,-0.45007 0.96029,-0.75781 1.87695,-0.75781zM39.5,37c0.91667,0 1.47689,0.30774 1.87695,0.75781c0.40006,0.45007 0.62305,1.08941 0.62305,1.74219c0,0.65278 -0.22299,1.29212 -0.62305,1.74219c-0.40006,0.45007 -0.96029,0.75781 -1.87695,0.75781c-0.91667,0 -1.47689,-0.30774 -1.87695,-0.75781c-0.40006,-0.45007 -0.62305,-1.08941 -0.62305,-1.74219c0,-0.65278 0.22299,-1.29212 0.62305,-1.74219c0.40006,-0.45007 0.96029,-0.75781 1.87695,-0.75781zM52,37c-0.552,0 -1,0.447 -1,1c0,0.553 0.448,1 1,1h2c0.552,0 1,-0.447 1,-1c0,-0.553 -0.448,-1 -1,-1zM52,42c-0.552,0 -1,0.447 -1,1c0,0.553 0.448,1 1,1h2c0.552,0 1,-0.447 1,-1c0,-0.553 -0.448,-1 -1,-1zM17.5,46c-2.47344,0 -4.5,2.02656 -4.5,4.5c0,2.47344 2.02656,4.5 4.5,4.5h11c2.47344,0 4.5,-2.02656 4.5,-4.5c0,-2.47344 -2.02656,-4.5 -4.5,-4.5zM39.5,46c-1.41667,0 -2.60644,0.56726 -3.37305,1.42969c-0.76661,0.86243 -1.12695,1.97309 -1.12695,3.07031c0,1.09722 0.36035,2.20788 1.12695,3.07031c0.76661,0.86243 1.95638,1.42969 3.37305,1.42969c1.41667,0 2.60644,-0.56726 3.37305,-1.42969c0.76661,-0.86243 1.12695,-1.97309 1.12695,-3.07031c0,-1.09722 -0.36035,-2.20788 -1.12695,-3.07031c-0.76661,-0.86243 -1.95638,-1.42969 -3.37305,-1.42969zM52,47c-0.552,0 -1,0.447 -1,1c0,0.553 0.448,1 1,1h2c0.552,0 1,-0.447 1,-1c0,-0.553 -0.448,-1 -1,-1zM17.5,48h11c1.39256,0 2.5,1.10744 2.5,2.5c0,1.39256 -1.10744,2.5 -2.5,2.5h-11c-1.39256,0 -2.5,-1.10744 -2.5,-2.5c0,-1.39256 1.10744,-2.5 2.5,-2.5zM39.5,48c0.91667,0 1.47689,0.30774 1.87695,0.75781c0.40006,0.45007 0.62305,1.08941 0.62305,1.74219c0,0.65278 -0.22299,1.29212 -0.62305,1.74219c-0.40006,0.45007 -0.96029,0.75781 -1.87695,0.75781c-0.91667,0 -1.47689,-0.30774 -1.87695,-0.75781c-0.40006,-0.45007 -0.62305,-1.08941 -0.62305,-1.74219c0,-0.65278 0.22299,-1.29212 0.62305,-1.74219c0.40006,-0.45007 0.96029,-0.75781 1.87695,-0.75781zM52,52c-0.552,0 -1,0.447 -1,1c0,0.553 0.448,1 1,1h2c0.552,0 1,-0.447 1,-1c0,-0.553 -0.448,-1 -1,-1z"></path></g></g></svg>